<mxfile host="app.diagrams.net" modified="2023-06-04T14:03:43.651Z" agent="Mozilla/5.0 (Windows NT 10.0; Win64; x64) AppleWebKit/537.36 (KHTML, like Gecko) Chrome/113.0.0.0 Safari/537.36 Edg/113.0.1774.57" etag="q_9i0gKOE-MYOtuz_MG8" version="21.3.7" type="github">
  <diagram name="第 1 页" id="ANBf_LP0coXDoD5v5aRg">
    <mxGraphModel dx="132" dy="73" grid="1" gridSize="10" guides="1" tooltips="1" connect="1" arrows="1" fold="1" page="1" pageScale="1" pageWidth="827" pageHeight="1169" math="0" shadow="0">
      <root>
        <mxCell id="0" />
        <mxCell id="1" parent="0" />
        <mxCell id="j1alreB6E4jPbFbOWSBv-1" value="" style="ellipse;whiteSpace=wrap;html=1;aspect=fixed;fillColor=#d5e8d4;strokeColor=#82b366;fontSize=14;" vertex="1" parent="1">
          <mxGeometry x="110" y="180" width="10" height="10" as="geometry" />
        </mxCell>
        <mxCell id="j1alreB6E4jPbFbOWSBv-2" value="" style="ellipse;whiteSpace=wrap;html=1;aspect=fixed;fillColor=#dae8fc;strokeColor=#6c8ebf;fontSize=14;" vertex="1" parent="1">
          <mxGeometry x="140" y="190" width="10" height="10" as="geometry" />
        </mxCell>
        <mxCell id="j1alreB6E4jPbFbOWSBv-3" value="" style="ellipse;whiteSpace=wrap;html=1;aspect=fixed;fillColor=#d5e8d4;strokeColor=#82b366;fontSize=14;" vertex="1" parent="1">
          <mxGeometry x="170" y="180" width="10" height="10" as="geometry" />
        </mxCell>
        <mxCell id="j1alreB6E4jPbFbOWSBv-4" value="" style="ellipse;whiteSpace=wrap;html=1;aspect=fixed;fillColor=#f8cecc;strokeColor=#b85450;fontSize=14;" vertex="1" parent="1">
          <mxGeometry x="120" y="210" width="10" height="10" as="geometry" />
        </mxCell>
        <mxCell id="j1alreB6E4jPbFbOWSBv-5" value="" style="ellipse;whiteSpace=wrap;html=1;aspect=fixed;fillColor=#dae8fc;strokeColor=#6c8ebf;fontSize=14;" vertex="1" parent="1">
          <mxGeometry x="160" y="210" width="10" height="10" as="geometry" />
        </mxCell>
        <mxCell id="j1alreB6E4jPbFbOWSBv-6" value="" style="endArrow=none;html=1;rounded=0;fontSize=14;entryX=0.117;entryY=0.899;entryDx=0;entryDy=0;entryPerimeter=0;exitX=0.886;exitY=0.115;exitDx=0;exitDy=0;exitPerimeter=0;" edge="1" source="j1alreB6E4jPbFbOWSBv-4" target="j1alreB6E4jPbFbOWSBv-2" parent="1">
          <mxGeometry width="50" height="50" relative="1" as="geometry">
            <mxPoint x="130" y="210" as="sourcePoint" />
            <mxPoint x="140" y="200" as="targetPoint" />
          </mxGeometry>
        </mxCell>
        <mxCell id="j1alreB6E4jPbFbOWSBv-7" value="" style="endArrow=none;html=1;rounded=0;exitX=0;exitY=0;exitDx=0;exitDy=0;fontSize=14;entryX=0.895;entryY=0.892;entryDx=0;entryDy=0;entryPerimeter=0;" edge="1" source="j1alreB6E4jPbFbOWSBv-5" target="j1alreB6E4jPbFbOWSBv-2" parent="1">
          <mxGeometry width="50" height="50" relative="1" as="geometry">
            <mxPoint x="120" y="240" as="sourcePoint" />
            <mxPoint x="150" y="200" as="targetPoint" />
          </mxGeometry>
        </mxCell>
        <mxCell id="j1alreB6E4jPbFbOWSBv-8" value="" style="endArrow=none;html=1;rounded=0;entryX=-0.02;entryY=0.671;entryDx=0;entryDy=0;exitX=0.984;exitY=0.304;exitDx=0;exitDy=0;exitPerimeter=0;fontSize=14;entryPerimeter=0;" edge="1" source="j1alreB6E4jPbFbOWSBv-2" parent="1" target="j1alreB6E4jPbFbOWSBv-3">
          <mxGeometry width="50" height="50" relative="1" as="geometry">
            <mxPoint x="150" y="190" as="sourcePoint" />
            <mxPoint x="170" y="186" as="targetPoint" />
            <Array as="points" />
          </mxGeometry>
        </mxCell>
        <mxCell id="j1alreB6E4jPbFbOWSBv-9" value="" style="endArrow=none;html=1;rounded=0;entryX=1.004;entryY=0.674;entryDx=0;entryDy=0;exitX=-0.023;exitY=0.384;exitDx=0;exitDy=0;entryPerimeter=0;exitPerimeter=0;fontSize=14;" edge="1" source="j1alreB6E4jPbFbOWSBv-2" target="j1alreB6E4jPbFbOWSBv-1" parent="1">
          <mxGeometry width="50" height="50" relative="1" as="geometry">
            <mxPoint x="100" y="220" as="sourcePoint" />
            <mxPoint x="150" y="170" as="targetPoint" />
          </mxGeometry>
        </mxCell>
        <mxCell id="j1alreB6E4jPbFbOWSBv-10" value="" style="endArrow=none;html=1;rounded=0;entryX=0.861;entryY=0.904;entryDx=0;entryDy=0;entryPerimeter=0;" edge="1" parent="1" source="j1alreB6E4jPbFbOWSBv-12" target="j1alreB6E4jPbFbOWSBv-4">
          <mxGeometry width="50" height="50" relative="1" as="geometry">
            <mxPoint x="140" y="230" as="sourcePoint" />
            <mxPoint x="130" y="220" as="targetPoint" />
          </mxGeometry>
        </mxCell>
        <mxCell id="j1alreB6E4jPbFbOWSBv-13" value="" style="endArrow=none;html=1;rounded=0;entryX=1;entryY=1;entryDx=0;entryDy=0;" edge="1" parent="1" target="j1alreB6E4jPbFbOWSBv-12">
          <mxGeometry width="50" height="50" relative="1" as="geometry">
            <mxPoint x="140" y="230" as="sourcePoint" />
            <mxPoint x="129" y="219" as="targetPoint" />
          </mxGeometry>
        </mxCell>
        <mxCell id="j1alreB6E4jPbFbOWSBv-12" value="" style="ellipse;whiteSpace=wrap;html=1;aspect=fixed;fillColor=#dae8fc;strokeColor=#6c8ebf;fontSize=14;" vertex="1" parent="1">
          <mxGeometry x="140" y="230" width="10" height="10" as="geometry" />
        </mxCell>
        <mxCell id="j1alreB6E4jPbFbOWSBv-14" value="" style="ellipse;whiteSpace=wrap;html=1;aspect=fixed;fillColor=#f8cecc;strokeColor=#b85450;fontSize=14;" vertex="1" parent="1">
          <mxGeometry x="140" y="160" width="10" height="10" as="geometry" />
        </mxCell>
        <mxCell id="j1alreB6E4jPbFbOWSBv-15" value="" style="endArrow=none;html=1;rounded=0;exitX=0.972;exitY=0.2;exitDx=0;exitDy=0;entryX=0.044;entryY=0.824;entryDx=0;entryDy=0;entryPerimeter=0;exitPerimeter=0;" edge="1" parent="1" source="j1alreB6E4jPbFbOWSBv-1" target="j1alreB6E4jPbFbOWSBv-14">
          <mxGeometry width="50" height="50" relative="1" as="geometry">
            <mxPoint x="90" y="200" as="sourcePoint" />
            <mxPoint x="140" y="150" as="targetPoint" />
          </mxGeometry>
        </mxCell>
      </root>
    </mxGraphModel>
  </diagram>
</mxfile>
